<?xml version="1.0" encoding="utf-8"?>
<!-- Generator: Adobe Illustrator 19.0.0, SVG Export Plug-In . SVG Version: 6.00 Build 0)  -->
<svg version="1.1" id="Calque_3" xmlns="http://www.w3.org/2000/svg" xmlns:xlink="http://www.w3.org/1999/xlink" x="0px" y="0px"
	 viewBox="0 0 283.5 283.5" style="enable-background:new 0 0 283.5 283.5;" xml:space="preserve">
<style type="text/css">
	.st0{fill:none;}
	.st1{fill:#00B934;}
	.st2{fill:#260723;}
	.st3{fill:#6072CD;}
	.st4{fill:#FFFFFF;}
	.st5{fill:url(#Nouvelle_nuance_de_motif_4);}
	.st6{fill:url(#Nouvelle_nuance_de_motif_5);}
	.st7{fill:none;stroke:url(#Nouvelle_nuance_de_motif_5);stroke-width:2;stroke-miterlimit:10;}
	.st8{fill:#FFFFFF;stroke:#FFFFFF;stroke-width:2;stroke-miterlimit:10;}
	.st9{fill:#FFFFFF;stroke:url(#Nouvelle_nuance_de_motif_5);stroke-width:2;stroke-miterlimit:10;}
	.st10{fill:none;stroke:#FFFFFF;stroke-width:2;stroke-miterlimit:10;}
	.st11{fill:url(#Nouvelle_nuance_de_motif_6);}
</style>
<pattern  y="-14.2" width="32.5" height="32.5" patternUnits="userSpaceOnUse" id="Nouvelle_nuance_de_motif_4" viewBox="0 -32.5 32.5 32.5" style="overflow:visible;">
	<g id="XMLID_12_">
		<polygon id="XMLID_14_" class="st0" points="0,0 32.5,0 32.5,-32.5 0,-32.5 		"/>
		<polygon id="XMLID_13_" class="st1" points="32.5,0 0,0 0,-32.5 32.5,-32.5 		"/>
	</g>
</pattern>
<pattern  y="-14.2" width="32.5" height="32.5" patternUnits="userSpaceOnUse" id="Nouvelle_nuance_de_motif_5" viewBox="0 -32.5 32.5 32.5" style="overflow:visible;">
	<g id="XMLID_15_">
		<polygon id="XMLID_26_" class="st0" points="0,0 32.5,0 32.5,-32.5 0,-32.5 		"/>
		<polygon id="XMLID_25_" class="st2" points="32.5,0 0,0 0,-32.5 32.5,-32.5 		"/>
	</g>
</pattern>
<pattern  y="-14.2" width="32.5" height="32.5" patternUnits="userSpaceOnUse" id="Nouvelle_nuance_de_motif_6" viewBox="0 -32.5 32.5 32.5" style="overflow:visible;">
	<g id="XMLID_27_">
		<polygon id="XMLID_29_" class="st0" points="0,0 32.5,0 32.5,-32.5 0,-32.5 		"/>
		<polygon id="XMLID_28_" class="st3" points="32.5,0 0,0 0,-32.5 32.5,-32.5 		"/>
	</g>
</pattern>
<g id="XMLID_137_">
	<polygon id="XMLID_139_" class="st4" points="19,70.9 141.7,0 264.5,70.9 264.5,212.6 141.7,283.5 19,212.6 	"/>
	<polygon id="XMLID_138_" class="st5" points="25.1,74.4 141.7,7.1 258.3,74.4 258.3,209.1 141.7,276.4 25.1,209.1 	"/>
</g>
<g id="XMLID_1_">
	<path id="XMLID_131_" class="st6" d="M87.1,188.2c-3.1-6.2-14.9-6.6-26.2-0.8c-11.3,5.7-18,15.4-14.9,21.6
		c3.1,6.2,14.9,6.6,26.2,0.8S90.3,194.4,87.1,188.2z"/>
	<path id="XMLID_122_" class="st6" d="M125.7,137.7c-2.5-5-12-5.3-21.1-0.7s-14.5,12.4-11.9,17.4s12,5.3,21.1,0.7
		C122.9,150.5,128.3,142.7,125.7,137.7z"/>
	<path id="XMLID_133_" class="st6" d="M143.8,188.2c-3.1-6.2-14.9-6.6-26.2-0.8c-11.3,5.7-18,15.4-14.9,21.6
		c3.1,6.2,14.9,6.6,26.2,0.8C140.3,204.1,147,194.4,143.8,188.2z"/>
	<path id="XMLID_136_" class="st6" d="M200.5,188.2c-3.1-6.2-14.9-6.6-26.2-0.8c-11.3,5.7-18,15.4-14.9,21.6
		c3.1,6.2,14.9,6.6,26.2,0.8S203.7,194.4,200.5,188.2z"/>
	<path id="XMLID_132_" class="st6" d="M257.2,188.2c-3.1-6.2-14.9-6.6-26.2-0.8c-11.3,5.7-18,15.4-14.9,21.6
		c3.1,6.2,14.9,6.6,26.2,0.8S260.4,194.4,257.2,188.2z"/>
	<path id="XMLID_119_" class="st6" d="M206.2,137.7c-2.5-5-12-5.3-21.1-0.7s-14.5,12.4-11.9,17.4c2.5,5,12,5.3,21.1,0.7
		C203.4,150.5,208.8,142.7,206.2,137.7z"/>
</g>
<line id="XMLID_118_" class="st7" x1="66.6" y1="198.6" x2="109.2" y2="146.1"/>
<line id="XMLID_117_" class="st7" x1="109.2" y1="146.1" x2="123.3" y2="198.6"/>
<line id="XMLID_116_" class="st7" x1="180" y1="198.6" x2="189.7" y2="146.1"/>
<line id="XMLID_115_" class="st7" x1="189.7" y1="146.1" x2="236.7" y2="198.6"/>
<line id="XMLID_96_" class="st7" x1="189.7" y1="146.1" x2="148" y2="100.4"/>
<line id="XMLID_95_" class="st7" x1="109.2" y1="145.6" x2="148" y2="100.4"/>
<rect id="XMLID_94_" x="132.3" y="122" transform="matrix(0.6776 0.7354 -0.7354 0.6776 142.5754 -79.1633)" class="st4" width="58.6" height="2"/>
<rect id="XMLID_93_" x="120.9" y="93.7" transform="matrix(0.7353 0.6777 -0.6777 0.7353 115.6384 -50.0441)" class="st4" width="2" height="58.6"/>
<circle id="XMLID_92_" class="st8" cx="141.7" cy="97.5" r="10.5"/>
<g id="XMLID_128_">
	<circle id="XMLID_91_" class="st9" cx="102" cy="141.7" r="15.6"/>
	<circle id="XMLID_90_" class="st9" cx="181.4" cy="141.7" r="15.6"/>
</g>
<line id="XMLID_89_" class="st10" x1="56.7" y1="194.2" x2="102" y2="144.6"/>
<line id="XMLID_88_" class="st10" x1="102" y1="144.6" x2="113.4" y2="194.2"/>
<line id="XMLID_124_" class="st10" x1="170.1" y1="194.2" x2="181.4" y2="144.6"/>
<line id="XMLID_125_" class="st10" x1="181.4" y1="144.6" x2="226.8" y2="194.2"/>
<g id="XMLID_129_">
	<circle id="XMLID_87_" class="st9" cx="56.7" cy="194.2" r="18.4"/>
	<circle id="XMLID_86_" class="st9" cx="113.4" cy="194.2" r="18.4"/>
	<circle id="XMLID_130_" class="st9" cx="170.1" cy="194.2" r="18.4"/>
	<circle id="XMLID_123_" class="st9" cx="226.8" cy="194.2" r="18.4"/>
</g>
<g id="XMLID_48_">
	<path id="XMLID_84_" class="st6" d="M72.7,88.8l-6.1,3.4c-1.1-1.2-2.3-2-3.4-2.5c-1.1-0.5-2.4-0.7-3.9-0.7c-2.7,0-5,0.8-6.7,2.5
		c-1.7,1.6-2.5,3.7-2.5,6.3c0,2.5,0.8,4.5,2.4,6.1c1.6,1.6,3.8,2.4,6.4,2.4c3.3,0,5.8-1.1,7.7-3.4l5.8,4c-3.1,4.1-7.6,6.1-13.3,6.1
		c-5.1,0-9.2-1.5-12.1-4.6c-2.9-3-4.4-6.6-4.4-10.7c0-2.8,0.7-5.4,2.1-7.8c1.4-2.4,3.4-4.3,5.9-5.6c2.5-1.4,5.4-2,8.5-2
		c2.9,0,5.5,0.6,7.8,1.7C69.4,85,71.2,86.7,72.7,88.8z"/>
	<path id="XMLID_82_" class="st6" d="M76.1,82.9h7.5l7.6,18.3l8.4-18.3h7.5l-18.3,39.9h-7.6l6-12.9L76.1,82.9z"/>
	<path id="XMLID_70_" class="st6" d="M112.1,72.1h7.3v10.8h4.4v6.3h-4.4v22.9h-7.3V89.2h-3.8v-6.3h3.8V72.1z"/>
	<path id="XMLID_55_" class="st6" d="M162.9,82.9h7.3v3.4c1.3-1.4,2.6-2.4,4.2-3.1c1.5-0.7,3.2-1,5-1c1.8,0,3.5,0.4,4.9,1.3
		c1.5,0.9,2.7,2.2,3.5,3.9c1.2-1.7,2.6-3,4.3-3.9c1.7-0.9,3.5-1.3,5.5-1.3c2.1,0,3.9,0.5,5.5,1.5c1.6,1,2.7,2.2,3.4,3.8
		c0.7,1.6,1,4.1,1,7.6v17.1h-7.4V97.3c0-3.3-0.4-5.6-1.2-6.7c-0.8-1.2-2.1-1.8-3.7-1.8c-1.3,0-2.4,0.4-3.4,1.1c-1,0.7-1.7,1.7-2.2,3
		c-0.5,1.3-0.7,3.3-0.7,6.1v13.2h-7.4V98c0-2.6-0.2-4.5-0.6-5.7c-0.4-1.2-1-2-1.7-2.6c-0.8-0.6-1.7-0.9-2.8-0.9
		c-1.2,0-2.3,0.4-3.3,1.1c-1,0.7-1.7,1.7-2.2,3c-0.5,1.3-0.7,3.4-0.7,6.2v13h-7.3V82.9z"/>
	<path id="XMLID_49_" class="st6" d="M243.9,99.6h-23.6c0.3,2.1,1.2,3.7,2.7,5c1.5,1.2,3.4,1.8,5.7,1.8c2.7,0,5.1-1,7.1-2.9l6.2,2.9
		c-1.5,2.2-3.4,3.8-5.5,4.8c-2.1,1-4.7,1.6-7.7,1.6c-4.6,0-8.3-1.4-11.2-4.3c-2.9-2.9-4.3-6.5-4.3-10.9c0-4.5,1.4-8.2,4.3-11.1
		c2.9-2.9,6.5-4.4,10.8-4.4c4.6,0,8.3,1.5,11.2,4.4c2.9,2.9,4.3,6.8,4.3,11.7L243.9,99.6z M236.6,93.9c-0.5-1.6-1.4-3-2.9-4
		s-3.1-1.5-5-1.5c-2,0-3.8,0.6-5.4,1.7c-1,0.7-1.9,2-2.7,3.8H236.6z"/>
</g>
<path id="XMLID_7_" class="st6" d="M141.6,82.2c2.8,0,5.3,0.7,7.8,2.1c2.4,1.4,4.3,3.2,5.7,5.6s2,4.9,2,7.7c0,2.8-0.7,5.3-2.1,7.7
	c-1.4,2.4-3.2,4.3-5.6,5.6c-2.4,1.4-5,2-7.8,2c-4.2,0-7.8-1.5-10.7-4.5c-3-3-4.4-6.6-4.4-10.9c0-4.6,1.7-8.4,5-11.4
	C134.4,83.5,137.7,82.2,141.6,82.2z M141.7,89.1c-2.3,0-4.2,0.8-5.7,2.4c-1.5,1.6-2.3,3.6-2.3,6.1c0,2.5,0.7,4.6,2.2,6.2
	c1.5,1.6,3.4,2.4,5.7,2.4c2.3,0,4.2-0.8,5.7-2.4c1.5-1.6,2.3-3.6,2.3-6.1c0-2.5-0.7-4.5-2.2-6.1C145.9,89.8,144,89.1,141.7,89.1z"/>
<path id="XMLID_52_" class="st11" d="M141.7,87c-5.8,0-10.5,4.7-10.5,10.5c0,5.8,4.7,10.5,10.5,10.5c5.8,0,10.5-4.7,10.5-10.5
	C152.2,91.7,147.5,87,141.7,87z M147.4,103.7c-1.5,1.6-3.4,2.4-5.7,2.4c-2.3,0-4.2-0.8-5.7-2.4c-1.5-1.6-2.2-3.6-2.2-6.2
	c0-2.5,0.8-4.5,2.3-6.1c1.5-1.6,3.4-2.4,5.7-2.4c2.3,0,4.2,0.8,5.7,2.4c1.5,1.6,2.2,3.6,2.2,6.1C149.7,100,148.9,102.1,147.4,103.7z
	"/>
<path id="XMLID_64_" class="st11" d="M150.8,109.9l-4.7-5.1c-0.6,0.4-1.2,0.7-1.9,0.9l4.9,5.3c0.1,0,0.2-0.1,0.3-0.1
	C149.9,110.6,150.4,110.2,150.8,109.9z"/>
<path id="XMLID_65_" class="st11" d="M137.3,104.8l-4.7,5.1c0.5,0.4,1.1,0.8,1.7,1.1l4.9-5.3C138.5,105.5,137.9,105.2,137.3,104.8z"
	/>
<g id="XMLID_153_">
	<path id="XMLID_154_" class="st11" d="M61.6,203.8c-0.7,0.4-1.8,0.9-3.7,0.9c-3.3,0-5.3-1.9-5.3-7.1v-7h-2v-4.4h2v-4.7h5.6v4.7h3.5
		v4.4h-3.5v6.6c0,2.8,1.2,3.9,3.5,3.1V203.8z"/>
</g>
<g id="XMLID_30_">
	<path id="XMLID_31_" class="st11" d="M117.6,189.3c-3.2,0-3.9,2.4-3.9,6.7v7.4h-5.6v-18.4h5.6v3c0.6-2,2-3.2,4.5-3.2
		c1.3,0,2.3,0.5,2.9,1.3l-0.8,4.3C120,190.2,119.1,189.3,117.6,189.3z"/>
</g>
<g id="XMLID_8_">
	<path id="XMLID_9_" class="st11" d="M166.7,196c0,2.1,2.1,3.3,4.1,3.3c1.4,0,3.1-0.6,4.2-1.7l3.3,3.1c-1.9,1.9-4.4,3.1-7.8,3.1
		c-5.8,0-9.4-4.1-9.4-9.4s3.6-9.3,9.1-9.3c5.6,0,9.1,4,9.1,9.3v1.8L166.7,196z M170.2,189.3c-1.9,0-3.5,1.3-3.5,3.3h7
		C173.7,190.6,172.2,189.3,170.2,189.3z"/>
</g>
<g id="XMLID_2_">
	<path id="XMLID_3_" class="st11" d="M223.4,196c0,2.1,2.1,3.3,4.1,3.3c1.4,0,3.1-0.6,4.2-1.7l3.3,3.1c-1.9,1.9-4.4,3.1-7.8,3.1
		c-5.8,0-9.4-4.1-9.4-9.4s3.6-9.3,9.1-9.3c5.6,0,9.1,4,9.1,9.3v1.8L223.4,196z M226.9,189.3c-1.9,0-3.5,1.3-3.5,3.3h7
		C230.4,190.6,228.9,189.3,226.9,189.3z"/>
</g>
</svg>
